<svg width="22" height="19" viewBox="0 0 22 19" fill="none" xmlns="http://www.w3.org/2000/svg">
<g clip-path="url(#clip0_0_1064)">
<path d="M16.2856 8.70856C16.2856 6.46939 16.2856 5.34981 15.4906 4.65418C14.6957 3.95856 13.4161 3.95856 10.8571 3.95856H8.14279C5.58376 3.95856 4.30425 3.95856 3.50923 4.65418C2.71422 5.34981 2.71422 6.46939 2.71422 8.70856V12.6669C2.71422 14.906 2.71422 16.0256 3.50923 16.7213C4.30425 17.4169 5.58376 17.4169 8.14279 17.4169H10.8571C13.4161 17.4169 14.6957 17.4169 15.4906 16.7213C16.2856 16.0256 16.2856 14.906 16.2856 12.6669V8.70856Z" stroke="white" stroke-opacity="0.75" stroke-width="1.33941"/>
<path d="M17.1904 14.25C18.6895 14.25 19.9047 13.1867 19.9047 11.875V7.125C19.9047 4.13944 19.9047 2.64666 18.8447 1.71916C17.7847 0.791669 16.0787 0.791669 12.6666 0.791669H9.04756C7.54846 0.791669 6.33328 1.855 6.33328 3.16667" stroke="white" stroke-opacity="0.75" stroke-width="1.33941"/>
</g>
<defs>
<clipPath id="clip0_0_1064">
<rect width="21.4306" height="18.7518" fill="white" transform="matrix(-1.01324 0 0 1.01324 21.7142 0)"/>
</clipPath>
</defs>
</svg>
