<svg width="19" height="19" viewBox="0 0 19 19" fill="none" xmlns="http://www.w3.org/2000/svg">
<path d="M5.54165 7.12498H13.4583M5.54165 10.2916H9.49998M16.625 15.8333L13.9932 14.5174C13.7937 14.4176 13.694 14.3678 13.5894 14.3326C13.4966 14.3014 13.4011 14.2789 13.3041 14.2652C13.1948 14.25 13.0833 14.25 12.8603 14.25H4.90832C4.02156 14.25 3.57819 14.25 3.2395 14.0774C2.94157 13.9256 2.69935 13.6834 2.54756 13.3855C2.37498 13.0468 2.37498 12.6034 2.37498 11.7166V5.69998C2.37498 4.81322 2.37498 4.36985 2.54756 4.03116C2.69935 3.73323 2.94157 3.49102 3.2395 3.33922C3.57819 3.16665 4.02157 3.16665 4.90832 3.16665H14.0916C14.9784 3.16665 15.4218 3.16665 15.7605 3.33922C16.0584 3.49102 16.3006 3.73323 16.4524 4.03116C16.625 4.36985 16.625 4.81323 16.625 5.69998V15.8333Z" stroke="white" stroke-width="1.26036" stroke-linecap="round" stroke-linejoin="round"/>
</svg>
