<svg width="12" height="12" viewBox="0 0 12 12" fill="none" xmlns="http://www.w3.org/2000/svg">
<g clip-path="url(#clip0_0_1229)">
<path fill-rule="evenodd" clip-rule="evenodd" d="M6.00001 6.00001C4.67641 6.00001 3.60001 4.92361 3.60001 3.60001C3.60001 2.2764 4.67641 1.2 6.00001 1.2C7.32361 1.2 8.40001 2.2764 8.40001 3.60001C8.40001 4.92361 7.32361 6.00001 6.00001 6.00001ZM8.25481 6.40379C9.07441 5.74439 9.60002 4.73401 9.60002 3.60001C9.60002 1.6116 7.98841 0 6.00001 0C4.01161 0 2.4 1.6116 2.4 3.60001C2.4 4.73401 2.92561 5.74439 3.74521 6.40379C1.54981 7.2288 0 9.26702 0 12H1.2C1.2 9.00001 3.35341 7.20001 6.00001 7.20001C8.64661 7.20001 10.8 9.00001 10.8 12H12C12 9.26702 10.4502 7.2288 8.25481 6.40379Z" fill="white"/>
</g>
<defs>
<clipPath id="clip0_0_1229">
<rect width="11.6199" height="11.6199" fill="white" transform="scale(1.03271)"/>
</clipPath>
</defs>
</svg>
