<svg width="31" height="34" viewBox="0 0 31 34" fill="none" xmlns="http://www.w3.org/2000/svg">
<path fill-rule="evenodd" clip-rule="evenodd" d="M20.5416 5.56752C20.5415 5.37356 20.5896 5.18327 20.6805 5.01729C20.7714 4.8513 20.9018 4.71594 21.0575 4.62589C21.2131 4.53583 21.3882 4.49452 21.5636 4.50643C21.7391 4.51834 21.9082 4.58301 22.0527 4.69344L27.7428 9.04119C27.8707 9.13897 27.9752 9.2695 28.0474 9.42161C28.1196 9.57371 28.1573 9.74286 28.1573 9.91456C28.1573 10.0863 28.1196 10.2554 28.0474 10.4075C27.9752 10.5596 27.8707 10.6902 27.7428 10.7879L22.0527 15.1357C21.9082 15.2461 21.7391 15.3108 21.5636 15.3227C21.3882 15.3346 21.2131 15.2933 21.0575 15.2032C20.9018 15.1132 20.7714 14.9778 20.6805 14.8118C20.5896 14.6459 20.5415 14.4556 20.5416 14.2616V11.3334H5.13538C4.79488 11.3334 4.46833 11.1841 4.22756 10.9184C3.98679 10.6527 3.85153 10.2924 3.85153 9.91669C3.85153 9.54096 3.98679 9.18063 4.22756 8.91495C4.46833 8.64928 4.79488 8.50002 5.13538 8.50002H20.5416V5.56752ZM8.7597 18.8601C8.90421 18.7497 9.07335 18.685 9.24879 18.6731C9.42424 18.6612 9.59929 18.7025 9.75497 18.7926C9.91065 18.8826 10.041 19.018 10.1319 19.184C10.2229 19.3499 10.2709 19.5402 10.2708 19.7342V22.6667H25.6771C26.0176 22.6667 26.3441 22.8159 26.5849 23.0816C26.8256 23.3473 26.9609 23.7076 26.9609 24.0834C26.9609 24.4591 26.8256 24.8194 26.5849 25.0851C26.3441 25.3508 26.0176 25.5 25.6771 25.5H10.2708V28.4283C10.2709 28.6222 10.2229 28.8125 10.1319 28.9785C10.041 29.1445 9.91065 29.2799 9.75497 29.3699C9.59929 29.46 9.42424 29.5013 9.24879 29.4894C9.07335 29.4775 8.90421 29.4128 8.7597 29.3024L3.06966 24.9546C2.94175 24.8568 2.83723 24.7263 2.76503 24.5742C2.69284 24.4221 2.65512 24.2529 2.65512 24.0812C2.65512 23.9095 2.69284 23.7404 2.76503 23.5883C2.83723 23.4362 2.94175 23.3056 3.06966 23.2079L8.7597 18.8601Z" fill="white"/>
</svg>
